<svg xmlns="http://www.w3.org/2000/svg" width="125.948" height="25.41" viewBox="0 0 125.948 25.41"><g transform="translate(-558.598 -178.115)"><path d="M560.479,195.418a12.85,12.85,0,0,0,3.082,3.082l4.211-7.292-7.292,4.211" transform="translate(0.395 2.748)"/><path d="M563.561,180a12.79,12.79,0,0,0-3.082,3.083l7.292,4.208L563.561,180" transform="translate(0.395 0.395)"/><path d="M574.258,179.243a12.64,12.64,0,0,0-4.211-1.128v8.42l4.211-7.292" transform="translate(2.404)"/><path d="M564.669,199.448a12.67,12.67,0,0,0,4.212,1.129v-8.421l-4.212,7.292" transform="translate(1.274 2.948)"/><path d="M578.983,183.079A12.776,12.776,0,0,0,575.9,180l-4.209,7.291,7.292-4.208" transform="translate(2.749 0.395)"/><path d="M575.9,198.5a12.828,12.828,0,0,0,3.082-3.082l-7.291-4.211L575.9,198.5" transform="translate(2.749 2.748)"/><path d="M581.059,188.4a12.765,12.765,0,0,0-1.125-4.211l-7.295,4.211h8.42" transform="translate(2.948 1.275)"/><path d="M558.6,189.563a12.689,12.689,0,0,0,1.125,4.209l7.3-4.209H558.6" transform="translate(0 2.403)"/><path d="M559.723,184.186A12.7,12.7,0,0,0,558.6,188.4h8.421l-7.3-4.211" transform="translate(0 1.275)"/><path d="M572.639,189.563l7.295,4.209a12.633,12.633,0,0,0,1.125-4.209h-8.42" transform="translate(2.948 2.403)"/><path d="M568.881,178.115a12.582,12.582,0,0,0-4.212,1.128l4.212,7.292v-8.42" transform="translate(1.274)"/><path d="M570.047,200.577a12.671,12.671,0,0,0,4.211-1.129l-4.211-7.292v8.421" transform="translate(2.404 2.948)"/><path d="M577.06,179.647a1.535,1.535,0,1,1,1.539,1.54,1.535,1.535,0,0,1-1.539-1.54Zm2.826,0a1.291,1.291,0,1,0-1.287,1.295h0a1.242,1.242,0,0,0,1.287-1.194C579.888,179.713,579.888,179.68,579.886,179.647Zm-1.638.87h-.225v-1.756h.756c.457,0,.612.171.612.486,0,.338-.237.465-.542.489l.521.78h-.252l-.495-.78h-.376Zm.31-.985c.246,0,.589.041.589-.289,0-.244-.2-.278-.416-.278h-.483v.567Z" transform="translate(3.876 0)"/><path d="M593.011,186.836a2.339,2.339,0,0,0-2.482-1.866c-2.889,0-3.424,2.644-3.424,4.705,0,2.416.733,4.7,3.279,4.7a2.376,2.376,0,0,0,2.576-1.862h1.7c-.161,1.963-2.14,3.256-4.425,3.256-3.456,0-4.831-2.819-4.831-6.093,0-2.871,1.262-6.213,5.186-6.1,2.253.065,3.942,1.169,4.119,3.26h-1.7" transform="translate(5.628 1.146)"/><path d="M595.695,191.13c-.113,1.428.473,2.9,2.044,2.9a1.715,1.715,0,0,0,1.96-1.425,1.833,1.833,0,0,0,.021-.229h1.62c-.244,1.849-1.668,2.771-3.615,2.771-2.611,0-3.648-1.845-3.648-4.246,0-2.384,1.2-4.379,3.775-4.379,2.434.047,3.584,1.589,3.584,3.84v.765h-5.74m4.12-1.067c.031-1.366-.586-2.42-2.076-2.42a2.16,2.16,0,0,0-2.057,2.259c0,.053.007.108.013.161Z" transform="translate(7.448 1.766)"/><path d="M602.972,187.967H603a2.826,2.826,0,0,1,2.463-1.442c.569,0,3.084.148,3.084,2.757V194.9h-1.543v-5.122c0-1.347-.565-2.075-1.866-2.075a2.115,2.115,0,0,0-1.491.6c-.226.225-.648.586-.648,2.174V194.9h-1.541v-8.137h1.509v1.2" transform="translate(8.999 1.766)"/><path d="M609.576,187.109v-1.731l1.541-.488v2.219H613v1.118h-1.88v5.226c0,.581.454.857,1.006.857a3.5,3.5,0,0,0,.808-.1V195.4c-.354.018-.7.1-1.05.1a5.745,5.745,0,0,1-1.038-.077,1.456,1.456,0,0,1-.909-.537c-.276-.388-.358-.42-.358-1.506v-5.145h-1.393v-1.118h1.393" transform="translate(10.41 1.422)"/><path d="M618.71,186.726h1.538v8.137h-1.505v-1.2h-.033a3.092,3.092,0,0,1-2.79,1.441,2.666,2.666,0,0,1-2.69-2.644,2.569,2.569,0,0,1,.013-.29v-5.447h1.541v4.814c0,1.413.323,2.449,1.8,2.449a1.936,1.936,0,0,0,1.817-1.168,6.074,6.074,0,0,0,.307-1.912v-4.184" transform="translate(11.469 1.808)"/><path d="M622.272,194.884h-1.54v-8.137h1.54v1.57h.034a2.254,2.254,0,0,1,2.382-1.684c.194,0,.358.018.534.018v1.458a1.89,1.89,0,0,0-.663-.079c-1.947.062-2.287,1.1-2.287,2.82v4.033" transform="translate(13.044 1.786)"/><path d="M628.857,197.98H627.28l1.233-3.147-3.386-8.108h1.714l2.548,6.42,2.6-6.42h1.651l-4.782,11.254" transform="translate(13.967 1.808)"/><path d="M633.116,195.483V183.776h2.514v9.764h5.075v1.943h-7.589" transform="translate(15.644 1.188)"/><path d="M640.58,183.776h2.594v2.093H640.58Zm.081,3.569h2.432v8.137h-2.432Z" transform="translate(17.211 1.188)"/><path d="M647,187.709l.033.05a2.776,2.776,0,0,1,2.5-1.233c.811,0,2.384.6,2.674,1.783a5.526,5.526,0,0,1,.166,1.3v5.3h-2.434v-4.893c-.014-.877-.26-1.863-1.459-1.863-.763,0-1.427.68-1.459,1.863v4.893h-2.432v-8.137H647v.94" transform="translate(18.051 1.764)"/><path d="M655.394,190.64l.031.029,2.4-3.42h2.707l-2.805,3.566,2.983,4.667h-2.836l-2.449-4.456-.031.033v4.423h-2.431V183.776h2.431v6.864" transform="translate(19.81 1.188)"/><path d="M660.155,188.177a1.535,1.535,0,1,1,1.54,1.541,1.535,1.535,0,0,1-1.54-1.541Zm2.826,0a1.291,1.291,0,1,0-1.286,1.3,1.242,1.242,0,0,0,1.286-1.2c0-.034,0-.067,0-.1Zm-1.638.87h-.225v-1.756h.757c.456,0,.611.172.611.485,0,.34-.237.467-.542.491l.521.779h-.253l-.494-.779h-.376Zm.31-.985c.247,0,.589.042.589-.289,0-.244-.2-.277-.416-.277h-.483v.566Z" transform="translate(21.32 1.791)"/></g></svg>